# xmcd CD database file
#
# Track frame offsets:
#	150
#	3828
#	16063
#	32026
#	54986
#	68303
#	82753
#	96926
#	111494
#	125806
#	139453
#	154509
#	168838
#	183000
#	199571
#	213987
#	218266
#	230694
#	248813
#	257640
#	272162
#	285862
#	304809
#	319602
#	334230
#
# Disc length: 4693 seconds
#
# Revision: 0
# Processed by: cddbd v1.5.2PL0 Copyright (c) Steve Scherf et al.
# Submitted via: CDex 1.70beta2
#
DISCID=48125319
DTITLE=Harry James - The In Person and Hi-Fi Sound of Harry James CD 2
DYEAR=1900
DGENRE=Jazz
TTITLE0=Ciribiribin
TTITLE1=Trumpet Blues
TTITLE2=You Made Me Love You
TTITLE3=James Session 3
TTITLE4=I've Heard That Song Before
TTITLE5=Cherry
TTITLE6=I'm Beggining to See the Ligght
TTITLE7=My Silent Love
TTITLE8=Sleepy Lagoon
TTITLE9=Two O'Clock Jump
TTITLE10=I Cried For You
TTITLE11=Jalousie
TTITLE12=It's Been a Long Long Time
TTITLE13=Velvet Moon
TTITLE14=Music makers
TTITLE15=Ciriciribin
TTITLE16=The Mole
TTITLE17=Autumn Serenade
TTITLE18=Sleepy Time Gal
TTITLE19=Crazy Rhythm
TTITLE20=Melancholy Rhapsody
TTITLE21=September Song
TTITLE22=Carnival
TTITLE23=Strictly Instrumental
TTITLE24=Blue Sgain
EXTD=
EXTT0=
EXTT1=
EXTT2=
EXTT3=
EXTT4=
EXTT5=
EXTT6=
EXTT7=
EXTT8=
EXTT9=
EXTT10=
EXTT11=
EXTT12=
EXTT13=
EXTT14=
EXTT15=
EXTT16=
EXTT17=
EXTT18=
EXTT19=
EXTT20=
EXTT21=
EXTT22=
EXTT23=
EXTT24=
PLAYORDER=
